<svg role="img" aria-labelledby="Japanese paper lantern" viewBox="0 0 65.985688 127.67041" id="svg35" sodipodi:docname="chouchinV3-light.svg" inkscape:version="1.2 (dc2aedaf03, 2022-05-15)" xmlns:inkscape="http://www.inkscape.org/namespaces/inkscape" xmlns:sodipodi="http://sodipodi.sourceforge.net/DTD/sodipodi-0.dtd" xmlns:xlink="http://www.w3.org/1999/xlink" xmlns="http://www.w3.org/2000/svg" xmlns:svg="http://www.w3.org/2000/svg"><sodipodi:namedview id="namedview37" pagecolor="#505050" bordercolor="#eeeeee" borderopacity="1" inkscape:showpageshadow="0" inkscape:pageopacity="0" inkscape:pagecheckerboard="0" inkscape:deskcolor="#505050" showgrid="false" inkscape:zoom="6.4776168" inkscape:cx="5.866355" inkscape:cy="37.127852" inkscape:window-width="1920" inkscape:window-height="1002" inkscape:window-x="-8" inkscape:window-y="-8" inkscape:window-maximized="1" inkscape:current-layer="svg35"></sodipodi:namedview><defs id="defs25"><linearGradient inkscape:collect="always" id="linearGradient8753"><stop offset="0" id="stop8749" style="stop-color: rgb(233, 41, 46); stop-opacity: 1;"></stop><stop offset="1" id="stop8751" style="stop-color: rgb(233, 41, 46); stop-opacity: 0;"></stop></linearGradient><linearGradient id="linearGradient6178"><stop offset="0" id="stop6174" style="stop-color: rgb(226, 113, 116); stop-opacity: 1;"></stop><stop offset="1" id="stop6176" style="stop-color: rgb(148, 61, 62); stop-opacity: 1;"></stop></linearGradient><linearGradient inkscape:collect="always" id="linearGradient2371"><stop offset="0" id="stop2367" style="stop-color: rgb(24, 52, 86); stop-opacity: 1;"></stop><stop offset="1" id="stop2369" style="stop-color: rgb(195, 74, 75); stop-opacity: 1;"></stop></linearGradient><linearGradient id="linearGradient2365"><stop offset="0" id="stop2361" style="stop-color: rgb(101, 101, 101); stop-opacity: 1;"></stop><stop offset="1" id="stop2363" style="stop-color: rgb(0, 0, 0); stop-opacity: 1;"></stop></linearGradient><linearGradient id="linearGradient2359"><stop offset="0" id="stop2355" style="stop-color: rgb(89, 89, 89); stop-opacity: 1;"></stop><stop offset="1" id="stop2357" style="stop-color: rgb(0, 0, 0); stop-opacity: 1;"></stop></linearGradient><linearGradient id="b"><stop offset="0" id="stop2" style="stop-color: rgb(24, 53, 87); stop-opacity: 1;"></stop><stop offset="1" id="stop4" style="stop-color: rgb(107, 26, 36); stop-opacity: 1;"></stop></linearGradient><linearGradient id="a"><stop offset="0" id="stop7" style="stop-color: rgb(255, 251, 255); stop-opacity: 1;"></stop><stop offset="1" id="stop9" style="stop-color: rgb(252, 200, 248); stop-opacity: 1;"></stop></linearGradient><linearGradient id="c"><stop offset="0" id="stop12" style="stop-color: rgb(73, 73, 73); stop-opacity: 1;"></stop><stop offset="1" id="stop14" style="stop-color: rgb(0, 0, 0); stop-opacity: 1;"></stop></linearGradient><linearGradient xlink:href="#a" id="f" x1="88.403297" x2="151.85381" y1="146.67952" y2="147.20937" gradientUnits="userSpaceOnUse"></linearGradient><linearGradient xlink:href="#b" id="g" x1="120.13432" x2="120.04803" y1="90.834518" y2="112.50179" gradientTransform="matrix(0.99999978,0,0,2.5017983,2.3983018e-5,-168.90639)" gradientUnits="userSpaceOnUse"></linearGradient><radialGradient xlink:href="#linearGradient2359" id="i" cx="120.039" cy="116.26813" r="14.59474" fx="120.039" fy="116.26813" gradientTransform="matrix(1,0,0,0.26179696,0,85.82949)" gradientUnits="userSpaceOnUse"></radialGradient><radialGradient xlink:href="#c" id="d" cx="120.039" cy="116.26813" r="14.59474" fx="120.039" fy="116.26813" gradientTransform="matrix(1,0,0,0.26179696,3.9583335e-7,85.82949)" gradientUnits="userSpaceOnUse"></radialGradient><radialGradient xlink:href="#linearGradient2365" id="h" cx="120.039" cy="116.26813" r="14.59474" fx="120.039" fy="116.26813" gradientTransform="matrix(1,0,0,0.26179696,0,-213.38176)" gradientUnits="userSpaceOnUse"></radialGradient><clipPath id="e" clipPathUnits="userSpaceOnUse"><path d="M82.135936 111.58454h75.985684v75.98568H82.135936Zm23.358324.91274v7.54171h29.08948v-7.54171z" class="powerclip" id="path22" style="opacity: 0.839552; fill: url(&quot;#d&quot;); fill-opacity: 1; fill-rule: evenodd; stroke: url(&quot;#radialGradient4110&quot;); stroke-width: 0.1;"></path></clipPath><linearGradient inkscape:collect="always" xlink:href="#linearGradient2371" id="linearGradient2373" x1="120.34061" y1="59.382866" x2="120.21571" y2="119.12706" gradientUnits="userSpaceOnUse"></linearGradient><linearGradient inkscape:collect="always" xlink:href="#linearGradient6178" id="linearGradient6172" x1="117.38573" y1="116.42251" x2="126.70609" y2="116.73126" gradientUnits="userSpaceOnUse"></linearGradient><linearGradient inkscape:collect="always" xlink:href="#linearGradient6178" id="linearGradient6908" x1="118.212" y1="-182.78871" x2="128.04112" y2="-183.25183" gradientUnits="userSpaceOnUse"></linearGradient><linearGradient inkscape:collect="always" xlink:href="#linearGradient8753" id="linearGradient8755" x1="87.268748" y1="148.19044" x2="152.98948" y2="148.19044" gradientUnits="userSpaceOnUse"></linearGradient></defs><path d="m 118.79684,59.093533 h 2.49952 v 53.375857 h -2.49952 z" transform="translate(-87.135936,-59.093532)" id="path29" style="display: inline; opacity: 0.839552; fill: url(&quot;#linearGradient2373&quot;); fill-opacity: 1; fill-rule: evenodd; stroke: rgb(233, 41, 46); stroke-width: 0; stroke-dasharray: none; stroke-opacity: 1;"></path><path d="m 106.46618,112.49728 h 27.14788 a 0.96967724,0.96967724 45 0 1 0.96968,0.96967 v 6.57204 h -29.08948 v -6.5698 a 0.9719177,0.9719177 135 0 1 0.97192,-0.97191 z" transform="translate(-87.135936,-59.093532)" id="path33" style="display: inline; opacity: 0.839552; fill: url(&quot;#linearGradient6172&quot;); fill-opacity: 1; fill-rule: evenodd; stroke: rgb(249, 183, 183); stroke-width: 0.1; stroke-opacity: 1; stroke-dasharray: none;"></path><path id="path27" clip-path="url(#e)" transform="translate(-87.135936,-59.093532)" d="m 120.12812,116.71658 c -18.14791,0 -32.859371,14.71342 -32.859371,32.86133 0,12.99016 7.557247,24.18482 18.498051,29.51758 0.61903,0.0388 1.23773,0.0843 1.85351,0.16015 0.64056,0.0922 1.27894,0.21213 1.92774,0.22852 0.30024,0.0177 0.6004,0.0317 0.90039,0.0488 0.38445,-0.009 0.76971,-0.014 1.15429,-0.0195 0.30933,-0.003 0.6184,-0.008 0.92774,-0.01 0.30933,-0.002 0.61846,-0.001 0.92773,0.008 0.16329,0.0165 0.32686,0.0339 0.49024,0.0508 0.11912,-0.005 0.23851,-0.004 0.35742,-0.0117 0.37823,-0.0234 0.7553,-0.0632 1.13476,-0.0508 0.37708,0.001 0.75379,1.9e-4 1.13086,0.004 0.3762,0.004 0.75298,0.01 1.12891,0.0254 0.20522,0.009 0.41021,0.0213 0.61523,0.0332 0.0962,-0.0326 0.20861,-0.0522 0.33789,-0.0547 0.0318,-6.1e-4 0.0659,2.2e-4 0.0996,0.002 0.56357,0.0257 1.12496,0.0548 1.68555,0.11914 0.0182,0.003 0.0365,0.005 0.0547,0.008 0.11458,0.002 0.22917,0.005 0.34375,0.008 0.0687,-0.0473 0.16939,-0.0774 0.30078,-0.0742 0.29485,0.008 0.14237,0.004 0.45508,0.0117 0.66378,0.0189 1.32824,0.0435 1.99218,0.0547 0.33279,0.007 0.66542,0.0133 0.99805,0.0273 0.0364,-0.008 0.0728,-0.0162 0.10938,-0.0234 0.3825,-0.071 0.77222,-0.0956 1.16015,-0.11328 0.52017,-0.0189 1.04011,-0.0204 1.56055,-0.0234 0.50545,-0.003 1.01024,-0.003 1.51562,-0.004 0.12157,-0.005 0.24434,-0.006 0.36524,-0.004 0.3627,0.008 0.7226,0.0479 1.08203,0.10546 0.0142,0.003 0.0287,0.003 0.043,0.006 h 0.24414 c 0.27577,-0.005 0.55091,0.008 0.82617,0.0195 0.28072,-0.0102 0.56068,-0.0213 0.8418,-0.0332 0.34266,-0.007 0.68707,-0.0159 1.0293,-0.0351 0.0504,-0.002 0.10039,-0.003 0.15039,-0.004 11.4723,-5.12143 19.47851,-16.60034 19.47851,-29.97656 0,-18.1479 -14.71325,-32.86133 -32.86133,-32.86133 z" style="fill: url(&quot;#f&quot;); fill-opacity: 1; fill-rule: evenodd; stroke: url(&quot;#linearGradient8755&quot;); stroke-width: 0; stroke-dasharray: none; stroke-opacity: 1;"></path><path d="m 106.9655,-186.71394 h 26.23617 a 1.3820687,1.3820687 45 0 1 1.38207,1.38207 v 6.15964 h -29.08948 v -6.07048 a 1.4712344,1.4712344 135 0 1 1.47124,-1.47123 z" transform="matrix(1,0,0,-1,-87.135936,-59.093532)" id="path31" style="display: inline; opacity: 0.839552; fill: url(&quot;#linearGradient6908&quot;); fill-opacity: 1; fill-rule: evenodd; stroke: rgb(250, 206, 207); stroke-width: 0.1; stroke-dasharray: none; stroke-opacity: 1;"></path></svg>